<mxfile host="app.diagrams.net" modified="2023-08-18T05:24:39.931Z" agent="Mozilla/5.0 (Windows NT 10.0; Win64; x64) AppleWebKit/537.36 (KHTML, like Gecko) Chrome/113.0.0.0 Safari/537.36" version="21.6.8" etag="QkBOoHSbk-z6he0Wg-YX" type="github">
  <diagram name="Page-1" id="1XR536EiE9KaQ0LYGVoP">
    <mxGraphModel>
      <root>
        <mxCell id="0" />
        <mxCell id="1" parent="0" />
      </root>
    </mxGraphModel>
  </diagram>
</mxfile>
